<?xml version="1.0" ?><!DOCTYPE svg  PUBLIC '-//W3C//DTD SVG 1.1//EN'  'http://www.w3.org/Graphics/SVG/1.1/DTD/svg11.dtd'><svg enable_background="new 0 0 1000 963" height="963px" pretty_print="False" style="stroke-linejoin: round; stroke:#000; fill: none;" version="1.1" viewBox="0 0 1000 963" width="1000px" xmlns="http://www.w3.org/2000/svg" xmlns:xlink="http://www.w3.org/1999/xlink"><defs><style type="text/css"><![CDATA[path { fill-rule: evenodd; }]]></style></defs><metadata><views><view h="963.879753809" padding="0" w="1000"><proj flip="auto" id="mercator" lon0="0"/><bbox h="247.11" w="256.64" x="-89.78" y="-1040.71"/></view></views></metadata><g class="" id="regions"><path d="M869.087776,215.312469L863.693418,225.630324L837.679477,223.845146L830.035444,214.612907L824.085155,233.566836L833.671788,243.582811L834.468624,239.359483L845.936849,244.313101L844.935045,259.467344L839.460250,269.308654L831.442425,271.903617L835.218652,290.558362L839.364254,290.797772L830.697221,308.127044L831.011839,312.286867L822.359615,325.688210L817.089719,343.444009L815.183602,344.296783L816.845960,345.929927L830.626430,356.233123L828.537222,365.333688L831.256956,364.754325L836.503618,372.117603L835.016267,374.084793L834.833991,374.326152L839.268395,380.764368L850.797695,380.776220L865.206925,363.017063L861.102357,358.431289L867.534185,323.771262L865.023902,311.780796L876.334580,289.956059L876.383970,281.036404L884.066388,257.495030L898.079748,243.222526L907.137964,223.688020L894.181505,218.413579L880.512588,214.603263L869.303341,215.452536L869.087776,215.312469Z " data-name-1="Alsace"/><path d="M305.765382,615.029457L305.652199,615.189864L306.274912,615.750770L305.765382,615.029457Z M303.859469,610.940869L307.218561,616.845974L308.709310,618.501105L303.859469,610.940869Z M303.878220,608.694743L303.991539,609.309838L304.123610,609.389933L303.878220,608.694743Z M301.651439,602.995314L302.330744,605.698671L302.311993,605.243772L301.651439,602.995314Z M302.972412,602.620289L302.878115,605.029412L303.878220,607.999368L302.972412,602.620289Z M391.631000,554.001574L389.895406,555.550119L386.104300,557.495725L381.252150,568.065333L368.533880,578.828731L367.904169,588.975686L360.052926,597.677120L353.780887,598.020360L347.498452,606.311597L335.652089,609.331113L326.525664,602.054377L322.735373,603.502922L322.926753,597.657150L313.135085,589.391936L310.010717,584.675188L301.424936,589.235604L301.424936,589.243721L304.576548,607.277230L310.200262,618.608168L299.953074,603.102295L297.329947,591.229707L292.706338,583.712239L281.911916,575.565693L277.948793,564.954242L271.777912,576.830294L267.550650,627.357339L264.323696,654.424325L270.890991,642.874782L278.382981,648.426649L279.798183,653.548948L268.815031,652.965319L263.682028,681.096100L257.529965,718.846787L241.338196,768.806733L231.789201,773.768345L232.005513,779.350083L256.310627,787.512914L252.089274,799.120158L258.004847,806.534772L258.621718,800.349108L264.126406,805.026517L269.975400,806.001579L286.482398,813.532291L298.893660,812.190498L300.173259,818.605867L309.092408,824.779582L312.535539,829.753511L315.261795,825.414030L325.177312,826.180386L325.183630,826.143618L324.175984,816.851259L329.271553,812.251031L327.759677,807.303850L341.473093,792.373052L346.773697,776.476891L350.405082,774.578689L347.116645,766.942364L342.574764,767.391365L341.471734,756.182614L330.925691,752.865898L330.288235,749.063106L335.448345,739.249407L333.839386,723.112504L342.211232,719.422896L351.082349,723.468250L353.418237,715.724721L380.084987,712.151492L391.078194,705.693888L398.780314,708.373334L409.135929,700.188805L413.202452,690.474979L408.735982,683.572811L419.694337,678.715351L416.999061,668.243670L431.198636,648.723728L441.004299,641.358267L442.010858,634.448826L446.661099,630.656097L445.620775,617.577719L446.598257,616.707920L445.766161,612.820983L444.984882,606.287517L434.927919,604.995595L438.607811,595.439456L434.595502,591.270177L434.261182,577.508528L424.387174,572.757282L426.565720,567.256319L418.517731,559.420817L407.469563,563.042755L395.194108,552.669605L391.631000,554.001574Z M342.747121,771.742630L343.746615,779.340932L340.348391,778.397153L342.747121,771.742630Z M338.031661,780.680780L342.936463,784.035175L339.213091,787.481024L338.031661,780.680780Z " data-name-1="Aquitaine"/><path d="M556.348932,443.930088L554.283026,445.412742L535.991722,454.151045L528.175604,453.845323L525.046819,459.472333L525.232424,470.551516L510.359318,472.637058L504.698374,483.830387L505.286032,485.058173L507.333458,487.149708L507.663226,491.977548L520.423957,503.211237L526.398364,521.325606L520.578922,533.752731L513.141758,537.460481L521.084172,553.459392L521.148713,574.453294L518.496508,582.055863L512.511096,579.018273L510.044225,585.282348L501.743033,594.328486L492.873683,613.441292L491.577575,620.910676L490.259116,620.742078L489.555693,621.845029L496.132567,637.403151L494.854123,652.431107L499.687522,651.039411L512.814232,653.265784L528.398574,629.413719L534.622922,629.006821L547.230658,639.231269L548.723445,650.923134L551.039631,653.433106L552.975912,648.305537L556.570815,638.919603L562.527082,629.641710L569.046142,629.784428L569.599967,625.812079L579.078715,622.902721L586.565745,640.854138L598.919533,633.635647L600.214485,638.547304L612.160853,648.928368L614.268336,649.606845L614.399319,646.984227L612.912715,643.134271L631.069095,631.505191L639.592305,624.286644L643.000448,618.878220L648.171156,617.859067L645.826911,611.913386L652.235505,602.939703L646.676467,595.269398L642.829518,585.133634L638.962594,586.631802L634.321593,582.612333L621.406372,586.930787L612.407805,585.260592L619.827373,575.889982L616.366240,564.123994L602.047094,546.768839L600.788148,542.838058L602.869000,531.787077L600.020457,527.930044L609.312309,522.901402L606.063004,500.550832L613.462395,499.368619L616.081378,498.432468L621.220564,494.415752L618.261962,477.326344L611.472104,475.237691L601.757410,468.449651L600.930884,462.815160L595.610986,451.435587L583.758576,457.791622L579.980515,452.584603L565.969669,456.641942L555.925139,445.856168L556.348932,443.930088Z " data-name-1="Auvergne"/><path d="M227.165727,234.552337L227.165727,234.925208L227.373344,235.040369L227.165727,234.552337Z M229.977584,234.351533L229.939811,234.752926L230.053131,234.752926L229.977584,234.351533Z M223.014011,234.208156L222.919578,234.380249L223.070535,234.408965L223.014011,234.208156Z M227.109068,234.007132L227.052544,234.265590L227.373344,234.236873L227.109068,234.007132Z M228.203606,233.433253L228.090422,233.662606L228.184855,233.662606L228.203606,233.433253Z M225.297452,233.347088L226.014666,234.265590L226.486422,234.035851L225.297452,233.347088Z M224.334984,233.232199L224.033002,233.261128L224.070844,233.404531L224.334984,233.232199Z M223.240446,233.203476L223.259332,233.978414L224.202914,234.035851L223.240446,233.203476Z M226.335330,233.174753L226.410876,233.461974L226.618492,233.461974L226.335330,233.174753Z M226.014666,233.060067L225.901278,233.060067L226.184373,233.461974L226.014666,233.060067Z M227.146841,233.060067L227.052544,232.945379L227.052544,233.117514L227.146841,233.060067Z M225.259678,232.744306L225.448408,232.945379L225.448408,232.801963L225.259678,232.744306Z M227.467641,232.715581L227.411117,233.002827L227.675325,233.002827L227.467641,232.715581Z M223.108308,232.658336L223.202809,232.916655L223.259332,232.801963L223.108308,232.658336Z M245.093702,217.941485L244.527445,218.027700L244.923791,218.229347L245.093702,217.941485Z M271.702366,170.051901L271.419271,170.168001L271.702366,170.168001L271.702366,170.051901Z M272.193009,169.587058L272.079826,169.587058L272.004415,169.761327L272.193009,169.587058Z M263.474411,160.862150L263.304704,161.415482L263.682028,161.095288L263.474411,160.862150Z M247.565533,259.540431L252.145934,273.213736L256.678847,273.815827L276.051916,267.397556L278.901682,267.924068L282.915078,268.886740L294.490644,270.152277L295.822283,274.787247L314.668430,271.096484L325.899961,271.900131L334.116910,264.881259L341.574863,266.943665L341.346933,275.953695L356.300274,280.935159L361.086932,275.704686L374.854834,274.118845L378.490907,289.469281L386.425168,297.402188L393.370263,297.611079L397.433050,302.830422L401.650529,303.569254L404.024870,302.242891L404.608587,299.400949L404.806149,292.121327L411.437713,285.387061L415.074261,269.380680L407.153519,258.271172L407.068665,254.058165L404.127184,252.347215L402.562384,244.033081L393.745752,232.965424L384.443709,232.399488L383.574111,216.630047L380.807433,214.050243L379.644142,198.255773L371.067533,187.955694L369.758653,176.044127L369.758653,176.120496L344.036775,190.754781L333.261104,193.763280L324.655825,187.512589L270.362507,183.862895L271.249428,180.790448L266.531658,156.552574L263.644255,150.431724L253.415954,148.068307L247.565805,152.502070L235.941053,151.714740L220.919232,146.492472L217.597981,147.776689L221.806289,166.767279L224.033002,168.395362L230.034244,183.689105L238.545226,198.706481L240.583413,197.897300L240.696596,210.826758L243.527340,230.677328L242.149707,237.334689L245.414502,249.307919L251.623224,256.655415L247.867786,259.540431L247.565533,259.540431Z " data-name-1="Basse-Normandie"/><path d="M576.429568,285.545089L561.701372,284.727795L554.217738,298.569195L550.046999,302.724706L551.473819,303.473338L555.909173,303.760876L562.563632,327.803012L554.243079,335.781752L554.349197,342.137624L542.804611,350.588930L546.502914,352.842164L549.525309,362.028116L554.128673,365.877935L544.162202,372.547979L545.623737,374.107018L545.020794,390.887831L551.909976,401.415401L557.818483,427.800120L557.906734,438.404618L556.348932,443.930088L555.925139,445.856168L565.969669,456.641942L579.980515,452.584603L583.758576,457.791622L595.610986,451.435587L600.930884,462.815160L601.757410,468.449651L611.472104,475.237691L618.261962,477.326344L621.220564,494.415752L616.081378,498.432468L614.061331,500.682238L621.542383,506.755945L627.016839,504.344909L634.996075,504.238227L636.504215,508.189966L646.070127,508.027751L647.064525,500.201872L655.149064,496.090542L661.852506,497.152402L667.098760,495.057476L670.167964,505.404850L674.559159,502.011443L680.696344,480.800997L687.383616,473.543065L699.495886,475.808696L710.067610,480.302587L711.437158,479.247650L716.382246,477.135281L718.169677,474.383487L718.256093,459.533493L715.094155,443.929393L719.099195,442.989868L716.247391,437.654319L710.808194,435.927168L705.577294,424.140812L707.063898,420.007920L715.048161,416.207060L722.857690,396.859941L724.219697,387.789311L718.347604,382.215953L722.249380,366.998788L717.014607,365.234966L715.801586,363.849339L713.701508,363.966224L700.890979,356.133928L697.446761,359.282746L684.874759,351.470644L683.328438,346.565654L686.341594,338.997249L677.797934,330.469654L679.065237,327.653157L666.417621,320.392689L647.721819,327.004480L643.560998,326.079573L637.414643,329.958644L624.311643,331.681923L615.726610,330.163399L617.377079,324.542064L612.852047,321.995610L607.770880,313.928385L600.198384,305.983284L594.418890,306.288920L593.907118,296.574198L586.799246,287.756664L579.774257,285.916256L579.114654,283.998361L576.429568,285.545089Z " data-name-1="Bourgogne"/><path d="M129.109576,393.440674L129.166236,393.635762L129.373716,393.690971L129.109576,393.440674Z M157.360081,391.937541L157.303625,392.187909L157.397922,392.215772L157.360081,391.937541Z M155.359735,389.709566L153.718030,391.325102L154.548224,391.547633L155.359735,389.709566Z M148.169658,388.762714L148.301932,389.096669L148.301932,388.874035L148.169658,388.762714Z M149.924750,387.536729L149.773794,387.676162L149.849340,387.815391L149.924750,387.536729Z M129.034166,385.502188L130.166341,394.554094L141.602499,395.027224L135.563688,388.511682L129.034166,385.502188Z M146.773207,384.358958L149.094557,386.366045L150.226732,385.251303L146.773207,384.358958Z M144.829521,383.243893L145.376688,383.383238L144.867294,383.327420L144.829521,383.243893Z M144.451993,382.825331L144.206739,383.020510L144.508653,382.909066L144.451993,382.825331Z M141.526952,377.914873L141.451542,377.942409L141.640136,378.277450L141.526952,377.914873Z M140.960899,377.719304L140.885285,377.942409L141.017355,378.081894L140.960899,377.719304Z M170.721106,374.256260L170.872063,374.479913L170.966496,374.284217L170.721106,374.256260Z M149.886977,371.713754L150.019251,371.489983L149.622837,371.825434L149.886977,371.713754Z M161.964871,370.148270L161.945984,370.483806L162.134714,370.483806L161.964871,370.148270Z M134.129395,369.393488L133.997325,369.617246L134.185919,369.589264L134.129395,369.393488Z M156.831800,368.442484L156.492114,369.002114L156.511000,369.113852L156.831800,368.442484Z M156.416499,368.247067L156.359976,368.470774L156.548773,368.414496L156.416499,368.247067Z M147.697902,368.162999L147.754561,368.582523L148.018701,368.582523L147.697902,368.162999Z M160.209779,367.855306L160.209779,368.274754L160.473919,368.162999L160.209779,367.855306Z M143.149975,366.988516L143.112202,367.268064L143.225385,367.128292L143.149975,366.988516Z M151.396816,366.988516L151.491113,367.324052L151.528886,367.296058L151.396816,366.988516Z M153.189545,366.792442L152.906519,367.268064L153.246205,367.240069L153.189545,366.792442Z M163.342436,366.652658L163.153706,366.960319L163.323549,367.016512L163.342436,366.652658Z M155.133368,366.568966L155.001162,366.736448L155.038935,366.848536L155.133368,366.568966Z M152.038484,366.512668L151.906210,366.680756L151.962937,366.792442L152.038484,366.512668Z M160.379622,366.484670L160.153051,366.540968L160.153051,366.624660L160.379622,366.484670Z M153.774486,366.148879L153.585892,367.072000L153.718030,367.016512L153.774486,366.148879Z M151.019356,365.981077L150.830559,365.981077L150.698488,365.981077L151.019356,365.981077Z M162.247898,365.225497L162.134714,365.365520L162.342195,365.393525L162.247898,365.225497Z M144.810634,364.665969L144.735224,364.945841L144.848407,365.001854L144.810634,364.665969Z M158.284775,364.470110L158.096181,364.609953L158.228319,364.609953L158.284775,364.470110Z M159.020876,364.889828L159.228356,366.596461L159.832251,365.561346L159.020876,364.889828Z M157.152600,363.714314L156.020289,364.470110L155.756149,368.498762L157.152600,363.714314Z M159.662408,363.518419L159.379381,363.798655L159.737954,363.714314L159.662408,363.518419Z M132.619761,363.434578L132.563033,363.546434L132.732944,363.630475L132.619761,363.434578Z M134.280352,355.618949L134.148282,355.871046L134.261466,355.927458L134.280352,355.618949Z M133.638752,355.590893L133.544455,355.814936L133.657639,355.814936L133.638752,355.590893Z M134.110509,355.450609L133.978439,355.730971L134.129395,355.787082L134.110509,355.450609Z M77.326201,353.347822L77.062061,353.740361L77.194131,353.824357L77.326201,353.347822Z M78.232009,353.291685L78.213259,354.329113L78.968110,354.105007L78.232009,353.291685Z M80.439972,352.983022L80.534472,353.291685L80.572042,353.207176L80.439972,352.983022Z M77.684774,352.506210L77.420634,352.814800L77.892459,352.954952L77.684774,352.506210Z M81.176072,351.860798L81.043866,353.263617L81.421326,352.870942L81.176072,351.860798Z M78.496285,351.692540L77.571591,352.029354L78.401852,352.169527L78.496285,351.692540Z M78.798267,351.692540L78.534058,352.253952L79.005883,352.169527L78.798267,351.692540Z M121.881862,351.608509L121.674178,351.805150L121.617518,352.001278L121.881862,351.608509Z M76.722306,351.103492L76.873263,351.468321L76.892150,351.328130L76.722306,351.103492Z M92.121451,346.921195L91.649694,347.398515L91.800651,347.398515L92.121451,346.921195Z M55.416421,346.612158L55.265464,347.089606L55.378784,347.089606L55.416421,346.612158Z M54.774753,346.584054L54.661570,347.033605L55.001256,347.061505L54.774753,346.584054Z M76.156253,346.471837L76.080639,346.949298L76.458166,346.500043L76.156253,346.471837Z M91.895084,345.780387L91.744127,346.022541L91.800651,346.078756L91.895084,345.780387Z M64.663503,345.011586L64.625730,345.264191L64.738914,345.404747L64.663503,345.011586Z M54.265359,344.983473L54.038788,345.376333L54.378543,345.180058L54.265359,344.983473Z M55.907064,344.758463L55.812767,344.955259L55.982678,344.955259L55.907064,344.758463Z M65.871225,339.446639L65.644857,339.811874L66.229866,340.037096L65.871225,339.446639Z M20.749510,319.612537L20.674099,319.923067L20.900467,319.753579L20.749510,319.612537Z M19.504015,319.386436L19.409718,320.233376L20.523143,319.979562L19.504015,319.386436Z M41.753482,293.040109L41.602525,293.352018L41.696958,293.352018L41.753482,293.040109Z M46.773369,290.940513L46.848916,291.195742L46.848916,291.138935L46.773369,290.940513Z M20.636326,287.590013L20.051318,289.293895L20.221161,288.555594L20.636326,287.590013Z M18.390727,286.113130L18.409409,286.397332L18.447183,286.453987L18.390727,286.113130Z M14.842701,285.772149L13.993621,286.368902L14.503150,286.425762L14.842701,285.772149Z M17.333758,285.686849L16.597793,286.198219L17.069618,286.198219L17.333758,285.686849Z M14.540788,285.346250L14.314421,285.544884L14.503150,285.544884L14.540788,285.346250Z M17.824469,285.232302L17.824469,285.942745L18.050972,286.056268L17.824469,285.232302Z M17.031845,284.578540L17.107391,285.374276L17.390418,285.317814L17.031845,284.578540Z M12.804582,283.015459L12.465031,283.527091L12.729172,284.322987L12.804582,283.015459Z M12.030844,281.111031L11.766704,281.309828L11.351607,281.167539L12.030844,281.111031Z M23.995554,280.172532L23.882167,280.229049L24.070965,280.399827L23.995554,280.172532Z M9.426671,279.944818L9.143577,280.712494L9.445558,280.854898L9.426671,279.944818Z M2.444211,278.493827L2.274368,278.750076L2.331028,278.750076L2.444211,278.493827Z M3.368906,274.708942L4.067233,275.306760L4.199303,275.022259L3.368906,274.708942Z M25.429643,274.281725L25.278686,274.367212L25.524076,274.765723L25.429643,274.281725Z M25.712670,269.752386L25.354232,270.066003L25.769329,270.180078L25.712670,269.752386Z M32.223305,264.762857L32.449876,265.076673L32.374466,264.905596L32.223305,264.762857Z M31.921528,264.648869L31.996938,264.934144L32.091235,264.934144L31.921528,264.648869Z M36.431681,263.992718L36.054358,264.221235L36.092131,264.363784L36.431681,263.992718Z M34.638952,263.650283L34.638952,264.306374L34.714498,264.306374L34.638952,263.650283Z M36.677071,263.364938L36.488341,263.536270L36.412931,263.536270L36.677071,263.364938Z M36.507228,263.051225L36.526114,263.222362L36.601525,263.250918L36.507228,263.051225Z M35.941174,262.509115L36.280725,262.994315L36.129904,262.566031L35.941174,262.509115Z M36.469454,262.480555L36.318498,262.623151L36.488341,262.965757L36.469454,262.480555Z M38.828441,262.394666L38.620757,262.480555L38.620757,262.680271L38.828441,262.394666Z M38.432163,261.938078L38.281071,262.195145L38.488687,262.252064L38.432163,261.938078Z M36.639298,261.567353L36.545001,261.709974L36.828095,261.938078L36.639298,261.567353Z M36.073244,261.510221L35.997698,261.824027L36.243087,261.795463L36.073244,261.510221Z M38.941625,261.253222L38.753031,261.452780L38.866215,261.452780L38.941625,261.253222Z M200.972161,260.682252L200.802317,261.167519L200.934387,261.167519L200.972161,260.682252Z M200.651361,259.711684L200.500404,259.768631L200.575814,260.053968L200.651361,259.711684Z M203.670698,259.625750L203.482104,259.882726L203.557515,259.882726L203.670698,259.625750Z M38.903988,259.397545L38.620757,259.540431L38.658598,259.711684L38.903988,259.397545Z M201.519396,259.397545L201.349552,260.653476L201.481622,260.425316L201.519396,259.397545Z M44.055741,259.283233L44.055741,259.597174L44.225653,259.425917L44.055741,259.283233Z M39.243538,259.083591L39.319085,259.397545L39.375812,259.397545L39.243538,259.083591Z M46.716642,258.683361L46.811142,258.883531L46.830029,258.797789L46.716642,258.683361Z M39.545452,258.483491L39.319085,258.740832L39.658839,258.912112L39.545452,258.483491Z M211.898653,257.255213L211.785469,257.540997L211.936426,257.512615L211.898653,257.255213Z M209.294412,257.026903L209.464323,257.341289L209.464323,257.255213L209.294412,257.026903Z M247.094048,256.484061L247.056275,256.655415L247.320415,256.655415L247.094048,256.484061Z M59.096449,256.169725L59.058676,256.341296L59.190746,256.398484L59.096449,256.169725Z M82.138404,255.626896L82.062994,255.769990L82.176177,255.855268L82.138404,255.626896Z M87.441318,254.740884L87.271475,254.969706L87.290362,255.026499L87.441318,254.740884Z M209.426482,254.626675L208.954726,255.112509L209.275526,255.055306L209.426482,254.626675Z M225.542841,254.798091L225.674911,254.512464L225.505068,254.769488L225.542841,254.798091Z M53.699102,254.369644L53.717988,254.798091L53.812421,254.683883L53.699102,254.369644Z M225.882392,254.226512L225.806981,254.397735L225.806981,254.540554L225.882392,254.226512Z M216.144802,253.283244L216.012732,253.426299L216.182575,253.540534L216.144802,253.283244Z M221.126848,252.682677L221.089075,252.882771L221.240032,252.825543L221.126848,252.682677Z M102.576323,252.425344L102.595209,252.682677L102.670620,252.597038L102.576323,252.425344Z M73.023528,251.595923L72.910344,251.595923L73.117825,251.910536L73.023528,251.595923Z M106.652561,249.565201L106.727971,249.364670L106.482718,249.565201L106.652561,249.565201Z M79.156840,249.164750L79.024634,249.336552L79.345434,249.364670L79.156840,249.164750Z M80.307901,248.649618L80.024875,248.735322L80.289015,248.878812L80.307901,248.649618Z M77.892459,246.903803L75.491962,247.905825L78.986996,248.163177L77.892459,246.903803Z M76.401507,246.846921L76.231663,247.047034L76.420393,247.047034L76.401507,246.846921Z M105.180495,245.043184L105.992006,245.701635L105.576910,245.128639L105.180495,245.043184Z M149.811567,244.126801L149.509654,244.413001L149.811567,244.384340L149.811567,244.126801Z M106.218374,243.983488L106.048530,244.269903L106.275101,244.155463L106.218374,243.983488Z M104.425712,243.496506L104.425712,244.069270L104.821922,244.183712L104.425712,243.496506Z M105.539136,242.895112L105.690093,243.353485L105.708980,243.296049L105.539136,242.895112Z M105.727866,242.694633L105.671207,243.067226L105.822163,242.895112L105.727866,242.694633Z M145.414461,242.637086L145.188094,242.665756L145.244618,242.866444L145.414461,242.637086Z M147.546945,242.178650L147.056370,242.350787L147.056370,242.465267L147.546945,242.178650Z M104.538895,241.605779L104.520009,242.035490L104.689852,242.092837L104.538895,241.605779Z M108.275447,241.491280L108.388631,242.236305L108.539587,242.236305L108.275447,241.491280Z M108.483064,239.771941L108.634020,239.943436L108.634020,239.800214L108.483064,239.771941Z M119.956927,239.599821L119.956927,239.771941L120.126770,239.943436L119.956927,239.599821Z M110.087063,239.312838L110.068313,239.628301L110.124836,239.513759L110.087063,239.312838Z M107.935693,239.226977L107.954579,239.571133L108.086649,239.571133L107.935693,239.226977Z M120.617413,239.226977L120.919394,239.628301L120.919394,239.485071L120.617413,239.226977Z M112.804623,238.252277L112.596939,238.453135L112.596939,238.596395L112.804623,238.252277Z M145.018250,238.252277L144.753974,238.596395L144.867294,238.596395L145.018250,238.252277Z M143.527298,238.223582L143.508412,238.538803L143.583958,238.366848L143.527298,238.223582Z M146.697796,237.822149L146.584613,238.252277L146.848753,238.252277L146.697796,237.822149Z M147.226077,237.707566L147.037483,237.879852L147.131780,238.023127L147.226077,237.707566Z M143.772756,237.564282L143.451888,237.850846L143.772756,237.879852L143.772756,237.564282Z M118.390564,237.506885L118.315154,238.309666L118.371678,238.710958L118.390564,237.506885Z M140.828829,237.449280L140.658918,237.650170L140.904171,237.736057L140.828829,237.449280Z M124.014278,237.392295L124.467216,238.023127L124.467216,237.908033L124.014278,237.392295Z M144.999364,237.248796L144.772861,238.195094L145.056024,238.195094L144.999364,237.248796Z M124.316192,237.191395L124.146348,237.420581L124.523876,237.564282L124.316192,237.191395Z M128.128154,237.191395L128.128154,237.334689L128.241541,237.471372L128.128154,237.191395Z M140.753215,237.363389L140.885285,237.076798L140.734328,237.076798L140.753215,237.363389Z M144.584063,237.277289L144.621836,236.933497L144.508653,236.933497L144.584063,237.277289Z M141.168379,236.531550L140.942012,236.904588L141.243926,236.761282L141.168379,236.531550Z M132.298893,236.445953L132.449849,237.191395L132.506373,236.904588L132.298893,236.445953Z M128.430135,236.330823L128.449022,237.248796L128.732184,236.502846L128.430135,236.330823Z M128.826481,236.101589L128.864254,236.531550L129.052848,236.359529L128.826481,236.101589Z M147.433761,235.786013L147.301623,236.187501L147.452648,236.187501L147.433761,235.786013Z M126.958205,235.613967L127.147003,236.101589L127.354484,236.101589L126.958205,235.613967Z M126.448676,235.527632L126.297651,235.585051L126.297651,235.786013L126.448676,235.527632Z M141.791093,235.470418L141.677909,235.585051L141.677909,235.814722L141.791093,235.470418Z M143.659369,235.470418L142.848061,235.900639L143.999123,235.613967L143.659369,235.470418Z M136.507133,235.441708L136.186401,235.613967L136.186401,235.786013L136.507133,235.441708Z M147.094007,235.355783L146.414770,237.764754L147.358351,235.814722L147.094007,235.355783Z M129.373716,235.211918L129.185122,235.499335L129.345386,235.671385L129.373716,235.211918Z M131.996843,234.781847L131.770476,234.982634L131.978093,235.040369L131.996843,234.781847Z M131.091035,234.494906L130.996738,234.724625L131.128809,234.810561L131.091035,234.494906Z M111.974226,234.265590L111.596834,234.322817L111.691131,234.552337L111.974226,234.265590Z M133.638752,233.978414L132.865014,234.667196L133.657639,235.011346L133.638752,233.978414Z M182.534656,379.669541L185.875880,375.020804L191.550547,376.509251L207.789261,370.319563L209.867939,358.150869L222.555706,351.602045L235.810681,351.949470L240.150584,346.716992L254.313338,338.114553L264.823307,343.299962L270.410334,339.056272L275.457940,324.858393L283.406537,321.747874L282.536192,311.244448L277.734044,300.319673L280.120138,281.558773L278.901682,267.924068L276.051916,267.397556L256.678847,273.815827L252.145934,273.213736L247.565533,259.540431L247.546918,259.540431L241.432493,258.397948L229.373690,261.995411L225.089835,261.310152L224.712443,251.109759L214.899240,254.826899L214.031273,263.564825L210.200220,258.598129L202.387566,263.108339L192.423406,261.167519L194.650119,256.341296L181.723281,260.682252L167.437425,273.000379L165.720309,267.557568L151.094903,246.846509L137.186506,235.585051L131.336425,235.125989L127.882900,238.653780L112.445982,238.137703L106.463831,241.605779L108.822614,247.676588L107.388526,254.769488L90.328722,252.168204L83.214055,252.425344L80.119172,249.736784L65.305171,253.826215L57.624383,258.569239L54.661570,254.826899L40.281552,259.511649L26.977119,268.498245L24.976773,271.291459L25.977014,286.794718L35.450463,289.748088L57.907478,280.741262L47.830134,290.940513L53.736875,288.669060L60.851405,291.025523L60.455127,294.203496L49.924913,294.969074L42.093169,289.521201L37.865974,295.989738L41.546001,305.649917L44.886139,300.043063L49.000218,299.816624L57.869637,304.828940L59.738117,308.988537L57.699998,314.868460L53.114094,312.777118L35.261733,317.128037L29.864522,317.381989L38.205660,323.365408L41.866666,321.701150L49.981437,328.609031L54.661570,339.727654L51.717642,343.297635L58.190505,345.123834L67.079014,342.932238L73.193371,337.646516L81.761080,334.326327L88.271716,344.589977L92.800892,345.235979L95.480679,340.627385L100.047492,346.780882L115.371227,354.861982L125.014383,348.240945L124.221895,355.057997L130.789054,359.346182L133.185814,356.319602L135.072977,371.602071L138.394296,376.881574L144.602950,364.386284L146.358042,367.659566L149.717270,359.654371L153.623529,366.316878L161.285430,361.838611L165.512625,365.225497L162.946090,370.763369L159.832251,370.008574L158.794373,375.988016L178.722694,371.853404L183.893538,374.591535L182.534656,379.645028L182.534656,379.669541Z M113.465178,233.347088L112.502642,234.150515L112.974467,234.150515L113.465178,233.347088Z M132.412076,233.232199L132.336530,233.490489L132.525260,233.490489L132.412076,233.232199Z M114.654013,232.600884L114.484169,232.858999L114.748445,232.858999L114.654013,232.600884Z M142.111961,232.256264L141.432656,232.572158L141.413769,233.031344L142.111961,232.256264Z M142.791402,231.797009L142.999018,232.084100L143.055542,231.969390L142.791402,231.797009Z M116.541175,231.739961L116.144761,231.825946L116.258148,232.170286L116.541175,231.739961Z M140.073774,230.706065L140.092660,230.936056L140.357004,231.022054L140.073774,230.706065Z M158.851033,210.538689L158.700076,210.826758L158.813260,210.769063L158.851033,210.538689Z " data-name-1="Bretagne"/><path d="M450.224886,227.883837L448.343158,228.881383L450.543240,235.481262L447.827854,236.545489L443.471442,245.073697L435.187915,246.313832L430.839316,244.421661L422.814766,248.758087L411.309855,251.436653L407.068665,254.058165L407.153519,258.271172L415.074261,269.380680L411.437713,285.387061L404.806149,292.121327L404.608587,299.400949L404.024870,302.242891L404.445062,303.881044L410.198401,306.443769L404.396623,319.206767L408.006947,332.224900L402.366656,333.832313L403.238903,340.686188L385.592121,358.324671L375.511652,358.981192L374.880243,364.010358L364.773006,361.377419L365.794172,363.488289L362.475842,383.378620L354.746955,408.014734L353.748209,408.933876L354.843426,411.840830L362.993457,411.875879L363.108678,415.969696L375.932524,431.421199L381.125176,429.027791L389.786095,429.051778L389.691322,424.966527L395.404849,425.269427L407.545585,443.540997L408.814450,448.867396L413.838210,450.877144L412.017762,461.075840L424.773670,468.924564L432.788233,478.259864L429.305020,481.523196L429.371259,485.567468L430.788974,486.528606L437.543301,487.318264L442.421947,484.761004L447.527435,488.394553L458.811481,482.104472L461.596028,483.505663L479.496012,479.443569L489.088352,482.514225L500.953330,483.822900L505.286032,485.058173L504.698374,483.830387L510.359318,472.637058L525.232424,470.551516L525.046819,459.472333L528.175604,453.845323L535.991722,454.151045L554.283026,445.412742L556.348932,443.930088L557.906734,438.404618L557.818483,427.800120L551.909976,401.415401L545.020794,390.887831L545.623737,374.107018L544.162202,372.547979L554.128673,365.877935L549.525309,362.028116L546.502914,352.842164L542.804611,350.588930L554.349197,342.137624L554.243079,335.781752L562.563632,327.803012L555.909173,303.760876L551.473819,303.473338L551.556227,304.860530L539.799608,306.707306L525.756288,311.512425L518.888574,307.797684L521.088045,303.473542L509.495291,291.436247L504.080009,293.209139L500.265397,290.127744L494.929669,293.019886L489.141343,289.528151L483.217346,280.457980L483.864721,277.892175L476.386522,278.168325L460.828676,256.356724L460.993899,247.624248L450.314699,229.005054L450.224886,227.883837Z " data-name-1="Centre"/><path d="M636.716655,120.983264L636.609518,137.912086L639.352758,142.081773L634.021378,149.765259L625.703814,153.875644L628.217766,159.181563L625.764346,179.246172L620.617688,183.761605L615.990478,181.430654L610.827515,185.387323L605.131380,184.255310L598.067191,189.456816L597.682666,192.884282L602.740462,203.677353L595.571446,206.319688L593.188342,214.371195L595.472530,220.466727L586.686402,234.201338L585.633510,235.386559L585.491996,237.930226L582.475105,238.941935L581.204813,246.328776L582.701472,253.270790L589.945558,258.484211L578.053813,279.865976L579.114654,283.998361L579.774257,285.916256L586.799246,287.756664L593.907118,296.574198L594.418890,306.288920L600.198384,305.983284L607.770880,313.928385L612.852047,321.995610L617.377079,324.542064L615.726610,330.163399L624.311643,331.681923L637.414643,329.958644L643.560998,326.079573L647.721819,327.004480L666.417621,320.392689L679.065237,327.653157L677.797934,330.469654L686.341594,338.997249L683.328438,346.565654L684.874759,351.470644L697.446761,359.282746L700.890979,356.133928L713.701508,363.966224L715.801586,363.849339L718.433545,358.037688L733.714207,357.583125L737.962531,342.853834L744.459850,339.917148L751.322129,329.236006L749.903327,327.334765L748.772103,325.979401L741.968657,328.371651L732.602345,317.272602L734.773486,306.108903L737.483912,304.366071L722.950900,288.363821L720.196382,288.727325L712.769816,272.211156L707.002415,265.406384L692.095340,260.038345L690.081406,250.294029L685.212815,246.541378L681.561865,238.245155L684.641123,230.808606L691.852600,221.239540L685.680292,205.357343L686.525840,197.679874L692.556770,193.208223L696.131971,182.576750L694.652024,172.391170L699.055381,160.552400L710.498061,164.445542L714.953661,156.471297L714.257099,155.982458L707.817526,149.012691L688.735093,137.521046L681.146904,138.394661L679.754257,131.275913L681.860381,127.438583L675.576724,120.873960L679.272446,106.227011L677.424279,100.016773L668.356008,109.710482L669.646137,111.742435L664.027994,118.476077L643.811212,120.493649L636.716655,120.983264Z " data-name-1="Champagne-Ardenne"/><path d="M979.080647,961.879754L979.193966,961.377220L978.835325,961.151184L979.080647,961.879754Z M978.457866,960.447321L978.288158,960.522526L978.382455,960.648136L978.457866,960.447321Z M978.212612,957.958059L977.986245,958.083724L977.986245,958.158959L978.212612,957.958059Z M968.286225,953.328403L968.267338,953.530004L968.342884,953.530004L968.286225,953.328403Z M962.813467,950.307449L962.794581,950.509063L963.021084,950.509063L962.813467,950.307449Z M987.440808,945.899121L987.195418,946.100705L987.214305,946.176184L987.440808,945.899121Z M986.006515,941.941150L985.742375,942.243910L986.100812,942.243910L986.006515,941.941150Z M986.346270,941.537689L986.232882,941.915912L986.365156,941.915912L986.346270,941.537689Z M986.044288,934.598333L985.949856,934.623603L986.063243,934.875930L986.044288,934.598333Z M944.017458,918.264182L944.093072,918.593234L944.187369,918.542374L944.017458,918.264182Z M934.110025,911.981380L933.298514,912.792454L933.808043,912.817818L934.110025,911.981380Z M934.355278,911.677142L934.166684,911.854723L934.279868,911.879908L934.355278,911.677142Z M934.713851,911.347426L934.562895,911.398349L934.562895,911.499647L934.713851,911.347426Z M984.666724,812.324004L984.836431,812.607811L984.836431,812.530571L984.666724,812.324004Z M993.234365,810.544435L993.385390,810.724785L993.404072,810.570067L993.234365,810.544435Z M989.950751,808.015591L983.175772,819.025401L984.572291,830.425167L975.136615,834.588014L969.739404,833.945980L965.191341,840.698911L953.170107,843.623532L941.658538,848.289722L939.601465,857.968883L934.317505,863.722672L930.014832,879.598799L938.186263,892.075123L943.809977,897.565982L933.845817,904.397509L934.713851,910.992775L945.734777,907.924229L943.168173,921.478892L938.318333,925.172572L946.565174,925.096367L949.377031,934.926195L946.584061,939.191907L956.057578,947.813892L967.569146,955.970783L974.910044,958.988832L986.214200,934.497162L989.233537,906.808259L998.820374,891.464453L999.424201,876.335136L997.593562,867.402121L997.631335,851.159493L991.818891,840.981223L994.800591,827.751032L993.743827,819.592151L989.950751,808.015591Z M988.969397,806.518508L989.176877,806.905663L989.158127,806.750842L988.969397,806.518508Z " data-name-1="Corse"/><path d="M749.903327,327.334765L751.322129,329.236006L744.459850,339.917148L737.962531,342.853834L733.714207,357.583125L718.433545,358.037688L715.801586,363.849339L717.014607,365.234966L722.249380,366.998788L718.347604,382.215953L724.219697,387.789311L722.857690,396.859941L715.048161,416.207060L707.063898,420.007920L705.577294,424.140812L710.808194,435.927168L716.247391,437.654319L719.099195,442.989868L715.094155,443.929393L718.256093,459.533493L718.169677,474.383487L716.382246,477.135281L711.437158,479.247650L711.444767,481.604014L709.703873,485.698650L723.367899,496.559677L730.912065,490.155844L739.105032,497.448887L751.086591,497.401226L762.421250,481.716863L762.987304,480.531392L766.021520,466.146907L779.612785,453.563758L786.095566,448.945337L788.222072,441.291057L788.425680,431.242517L806.465751,417.913190L805.499411,417.194813L821.659725,401.381184L826.101738,394.101560L827.924496,386.890372L819.707887,385.513026L825.740176,378.818354L824.666562,376.597710L834.741732,374.002728L835.016267,374.084793L836.503618,372.117603L831.256956,364.754325L828.537222,365.333688L830.626430,356.233123L816.845960,345.929927L815.183602,344.296783L809.681020,342.166865L796.666339,332.980878L792.330444,336.097606L781.250821,329.946880L770.040079,331.838152L768.033483,327.733716L755.691925,328.296479L752.360279,326.718927L749.903327,327.334765Z " data-name-1="Franche-Comté"/><path d="M358.982982,152.006342L358.832025,152.035523L358.907435,152.327211L358.982982,152.006342Z M446.235200,107.670304L422.164606,124.759298L394.933025,130.881939L364.568923,146.813583L361.002214,150.052457L357.378846,171.155789L369.758653,175.975487L369.758653,176.044127L371.067533,187.955694L379.644142,198.255773L380.807433,214.050243L383.574111,216.630047L384.443709,232.399488L393.745752,232.965424L402.562384,244.033081L404.127184,252.347215L407.068665,254.058165L411.309855,251.436653L422.814766,248.758087L430.839316,244.421661L435.187915,246.313832L443.471442,245.073697L447.827854,236.545489L450.543240,235.481262L448.343158,228.881383L450.224886,227.883837L451.573985,227.211527L451.932014,213.885041L457.643979,211.448915L465.042759,197.823751L465.890820,196.769290L467.287271,193.955990L471.598912,195.050373L470.448462,183.474624L468.549411,180.771242L472.846785,170.178251L465.399973,157.888993L469.667183,146.680980L466.883316,147.465620L467.461802,128.762513L446.235200,107.654633L446.235200,107.670304Z " data-name-1="Haute-Normandie"/><path d="M465.042759,197.823751L457.643979,211.448915L451.932014,213.885041L451.573985,227.211527L450.224886,227.883837L450.314699,229.005054L460.993899,247.624248L460.828676,256.356724L476.386522,278.168325L483.864721,277.892175L483.217346,280.457980L489.141343,289.528151L494.929669,293.019886L500.265397,290.127744L504.080009,293.209139L509.495291,291.436247L521.088045,303.473542L518.888574,307.797684L525.756288,311.512425L539.799608,306.707306L551.556227,304.860530L551.473819,303.473338L550.046999,302.724706L554.217738,298.569195L561.701372,284.727795L576.429568,285.545089L579.114654,283.998361L578.053813,279.865976L589.945558,258.484211L582.701472,253.270790L581.204813,246.328776L582.475105,238.941935L585.491996,237.930226L585.633510,235.386559L581.315211,233.091167L572.619508,227.662501L565.569518,212.250780L557.851161,209.878956L555.186864,212.305866L526.948180,209.846159L524.260852,211.722823L508.297013,200.052544L501.208842,203.384312L490.767287,199.024334L476.751821,203.746247L468.982443,201.497743L465.890820,196.769290L465.042759,197.823751Z " data-name-1="Île-de-France"/><path d="M554.604641,818.329962L554.359388,818.561630L554.547982,818.561630L554.604641,818.329962Z M559.492458,804.091454L559.548982,803.755526L559.473572,803.755526L559.492458,804.091454Z M553.981928,801.094555L553.566763,801.146462L553.378033,801.870040L553.981928,801.094555Z M601.575813,772.521477L601.764543,772.495486L601.802180,772.417700L601.575813,772.521477Z M551.039631,653.433106L551.300850,654.949179L558.886526,660.496970L560.958885,682.524459L558.889651,686.809335L566.153711,692.092042L567.145188,695.927847L577.449511,700.779812L573.737077,703.322859L579.715695,718.509248L575.990285,725.175558L569.401929,726.329530L570.132459,730.157030L563.971429,734.126511L557.391769,730.912253L553.730764,746.585877L548.525068,744.848228L536.716681,751.763803L531.528174,750.300703L527.506421,759.039695L528.508361,766.667030L498.385164,772.058670L472.040709,769.638367L463.643454,792.798340L466.082200,791.587141L479.965799,797.939156L483.214425,814.758976L475.717136,822.432748L481.487051,835.951105L486.161477,834.593101L493.799804,843.150481L488.720200,842.252565L471.571398,848.143765L471.296659,848.389362L481.282492,859.543665L483.923147,866.996587L504.692192,862.012996L516.338819,867.438811L518.674096,870.131426L540.149282,862.923389L544.368596,859.514291L561.109910,861.476375L563.040280,854.130046L556.963628,850.006610L556.265301,831.813119L553.472330,820.132977L559.228114,803.962218L550.698246,802.283366L554.831212,796.105373L560.719066,801.198275L567.512729,790.619952L576.080438,784.714567L587.856215,783.574426L625.410393,757.074137L634.902729,765.791341L634.917471,765.791341L649.367600,754.163066L648.839387,747.768427L660.579904,742.126638L663.069806,734.305827L662.046671,727.906868L674.716774,718.367468L672.629740,710.698365L665.266559,693.127028L664.052927,688.505945L658.838875,686.904548L650.930226,682.566070L647.831741,688.415599L644.993253,682.306614L638.642677,684.411749L623.670790,683.816537L618.776315,662.442859L614.405841,657.700484L613.569261,651.209953L614.268336,649.606845L612.160853,648.928368L600.214485,638.547304L598.919533,633.635647L586.565745,640.854138L579.078715,622.902721L569.599967,625.812079L569.046142,629.784428L562.527082,629.641710L556.570815,638.919603L552.975912,648.305537L551.039631,653.433106Z M484.299384,855.923880L486.763809,860.014358L484.747498,860.286978L484.299384,855.923880Z " data-name-1="Languedoc-Roussillon"/><path d="M429.371259,485.567468L427.908976,487.307927L421.244395,487.603478L419.457304,491.801465L410.303568,494.208678L404.423526,500.382100L414.826494,525.267317L412.746593,528.931050L407.335115,527.793924L405.506039,537.326161L401.116338,541.725678L398.322145,540.101821L392.550260,549.706203L391.631000,554.001574L395.194108,552.669605L407.469563,563.042755L418.517731,559.420817L426.565720,567.256319L424.387174,572.757282L434.261182,577.508528L434.595502,591.270177L438.607811,595.439456L434.927919,604.995595L444.984882,606.287517L445.766161,612.820983L446.598257,616.707920L448.197433,617.108421L461.864720,618.137036L468.073238,624.239024L474.895910,624.772609L477.459999,620.633231L484.008748,620.934980L490.259116,620.742078L491.577575,620.910676L492.873683,613.441292L501.743033,594.328486L510.044225,585.282348L512.511096,579.018273L518.496508,582.055863L521.148713,574.453294L521.084172,553.459392L513.141758,537.460481L520.578922,533.752731L526.398364,521.325606L520.423957,503.211237L507.663226,491.977548L507.333458,487.149708L505.286032,485.058173L500.953330,483.822900L489.088352,482.514225L479.496012,479.443569L461.596028,483.505663L458.811481,482.104472L447.527435,488.394553L442.421947,484.761004L437.543301,487.318264L430.788974,486.528606L429.371259,485.567468Z " data-name-1="Limousin"/><path d="M714.953661,156.471297L710.498061,164.445542L699.055381,160.552400L694.652024,172.391170L696.131971,182.576750L692.556770,193.208223L686.525840,197.679874L685.680292,205.357343L691.852600,221.239540L684.641123,230.808606L681.561865,238.245155L685.212815,246.541378L690.081406,250.294029L692.095340,260.038345L707.002415,265.406384L712.769816,272.211156L720.196382,288.727325L722.950900,288.363821L737.483912,304.366071L734.773486,306.108903L732.602345,317.272602L741.968657,328.371651L748.772103,325.979401L749.903327,327.334765L752.360279,326.718927L755.691925,328.296479L768.033483,327.733716L770.040079,331.838152L781.250821,329.946880L792.330444,336.097606L796.666339,332.980878L809.681020,342.166865L815.183602,344.296783L817.089719,343.444009L822.359615,325.688210L831.011839,312.286867L830.697221,308.127044L839.364254,290.797772L835.218652,290.558362L831.442425,271.903617L839.460250,269.308654L844.935045,259.467344L845.936849,244.313101L834.468624,239.359483L833.671788,243.582811L824.085155,233.566836L830.035444,214.612907L837.679477,223.845146L863.693418,225.630324L869.087776,215.312469L868.802303,215.125534L859.358542,204.738190L850.497276,203.411538L839.826907,208.313812L826.689803,201.072959L816.286700,197.818341L807.307902,202.976728L796.744738,186.174392L797.516914,181.045955L790.790238,173.773942L776.468035,169.438935L766.122611,172.954861L756.008309,174.135567L744.535057,164.071294L737.170789,165.129464L731.043252,168.509512L718.428382,158.906828L714.953661,156.471297Z " data-name-1="Lorraine"/><path d="M343.746615,779.340932L342.747121,771.742630L340.348391,778.397153L343.746615,779.340932Z M446.598257,616.707920L445.620775,617.577719L446.661099,630.656097L442.010858,634.448826L441.004299,641.358267L431.198636,648.723728L416.999061,668.243670L419.694337,678.715351L408.735982,683.572811L413.202452,690.474979L409.135929,700.188805L398.780314,708.373334L391.078194,705.693888L380.084987,712.151492L353.418237,715.724721L351.082349,723.468250L342.211232,719.422896L333.839386,723.112504L335.448345,739.249407L330.288235,749.063106L330.925691,752.865898L341.471734,756.182614L342.574764,767.391365L347.116645,766.942364L350.405082,774.578689L346.773697,776.476891L341.473093,792.373052L327.759677,807.303850L329.271553,812.251031L324.175984,816.851259L325.183630,826.143618L325.258565,825.705154L339.781658,830.554640L345.787859,837.426643L357.250988,836.010740L361.888524,833.846459L370.202556,839.256648L390.537006,836.427985L396.052224,822.581307L410.106278,826.462303L413.528076,828.719726L422.885420,829.319396L426.863014,832.311159L450.483931,845.171411L450.804934,842.384541L465.889394,844.395216L471.929020,847.823329L471.571398,848.143765L488.720200,842.252565L493.799804,843.150481L486.161477,834.593101L481.487051,835.951105L475.717136,822.432748L483.214425,814.758976L479.965799,797.939156L466.082200,791.587141L463.643454,792.798340L472.040709,769.638367L498.385164,772.058670L528.508361,766.667030L527.506421,759.039695L531.528174,750.300703L536.716681,751.763803L548.525068,744.848228L553.730764,746.585877L557.391769,730.912253L563.971429,734.126511L570.132459,730.157030L569.401929,726.329530L575.990285,725.175558L579.715695,718.509248L573.737077,703.322859L577.449511,700.779812L567.145188,695.927847L566.153711,692.092042L558.889651,686.809335L560.958885,682.524459L558.886526,660.496970L551.300850,654.949179L551.039631,653.433106L548.723445,650.923134L547.230658,639.231269L534.622922,629.006821L528.398574,629.413719L512.814232,653.265784L499.687522,651.039411L494.854123,652.431107L496.132567,637.403151L489.555693,621.845029L490.259116,620.742078L484.008748,620.934980L477.459999,620.633231L474.895910,624.772609L468.073238,624.239024L461.864720,618.137036L448.197433,617.108421L446.598257,616.707920Z " data-name-1="Midi-Pyrénées"/><path d="M509.228230,3.964729L508.850702,4.295027L509.077205,4.384731L509.228230,3.964729Z M458.878468,77.486680L473.969653,78.005922L490.913488,89.504815L492.670075,94.008926L510.241175,90.743912L516.872127,91.160134L517.087964,102.994448L524.903268,99.872764L526.723376,105.814884L532.681749,109.463232L562.186037,110.224103L564.563231,116.705565L582.151451,114.545009L592.240752,116.294605L603.923590,110.205477L609.953638,110.759047L613.315175,115.196857L624.383181,119.829277L632.057854,116.837894L631.128676,115.157843L636.821482,108.027013L632.480628,94.765113L636.094553,88.275301L631.169574,89.454659L621.699793,80.052758L604.601333,80.648912L600.198792,84.096927L599.418124,75.367089L594.874206,64.927371L587.163254,64.796135L588.284287,62.350603L578.711718,64.838742L572.917413,60.876259L570.512568,49.631941L571.164631,44.928419L563.835011,33.970925L556.940258,34.465771L542.205336,39.961987L539.263719,39.307232L531.404460,29.489201L528.503877,30.101690L528.367934,16.418800L523.457222,0.180209L498.358261,9.815634L496.131344,7.386185L481.260684,10.475436L458.388436,23.860826L456.086109,39.685114L456.614593,70.178516L458.861483,77.487852L458.878468,77.486680Z " data-name-1="Nord-Pas-de-Calais"/><path d="M223.051852,463.067854L222.863054,463.232619L223.014011,463.232619L223.051852,463.067854Z M188.479238,450.801214L188.969881,454.269823L192.762957,454.902398L188.479238,450.801214Z M196.593941,421.672366L196.197595,428.616907L198.896268,428.091510L196.593941,421.672366Z M189.592662,420.204527L189.724732,420.620348L189.894576,420.731002L189.592662,420.204527Z M187.743273,400.033322L187.686613,400.227868L187.762160,400.311128L187.743273,400.033322Z M184.176565,395.500211L184.006721,395.639235L184.006721,395.722567L184.176565,395.500211Z M206.161755,395.249499L204.670939,395.722567L205.765545,395.555701L206.161755,395.249499Z M180.949407,394.052968L180.572083,394.414841L180.666380,394.581944L180.949407,394.052968Z M181.364708,392.856267L181.308048,393.245678L181.308048,393.078734L181.364708,392.856267Z M278.901682,267.924068L280.120138,281.558773L277.734044,300.319673L282.536192,311.244448L283.406537,321.747874L275.457940,324.858393L270.410334,339.056272L264.823307,343.299962L254.313338,338.114553L240.150584,346.716992L235.810681,351.949470L222.555706,351.602045L209.867939,358.150869L207.789261,370.319563L191.550547,376.509251L185.875880,375.020804L182.534656,379.669541L182.572429,379.672957L177.760226,388.010687L181.100567,393.245678L192.744206,400.338947L202.557274,397.642251L202.764890,407.922302L197.160063,411.363405L213.521675,418.265760L210.653158,428.478744L204.010453,437.788667L204.406799,442.617188L226.203260,471.742352L226.297692,473.250589L249.981316,489.157955L274.533110,492.218939L274.539428,492.218939L282.842046,486.274551L286.517725,490.467770L293.321782,488.913671L304.794694,490.924604L310.083342,487.661562L311.117959,482.142512L308.210446,480.013042L307.690929,467.329729L301.103661,445.735815L301.887725,442.926929L283.895210,419.200082L287.443643,419.357531L296.726188,424.915229L312.343548,418.602151L312.459992,414.482716L337.249567,412.485350L351.029698,408.924984L353.748209,408.933876L354.746955,408.014734L362.475842,383.378620L365.794172,363.488289L364.773006,361.377419L374.880243,364.010358L375.511652,358.981192L385.592121,358.324671L403.238903,340.686188L402.366656,333.832313L408.006947,332.224900L404.396623,319.206767L410.198401,306.443769L404.445062,303.881044L404.024870,302.242891L401.650529,303.569254L397.433050,302.830422L393.370263,297.611079L386.425168,297.402188L378.490907,289.469281L374.854834,274.118845L361.086932,275.704686L356.300274,280.935159L341.346933,275.953695L341.574863,266.943665L334.116910,264.881259L325.899961,271.900131L314.668430,271.096484L295.822283,274.787247L294.490644,270.152277L282.915078,268.886740L278.901682,267.924068Z " data-name-1="Pays de la Loire"/><path d="M458.879079,77.521617L454.500928,86.094619L459.822728,93.856995L454.010216,94.505986L446.235200,107.611432L446.235200,107.654633L467.461802,128.762513L466.883316,147.465620L469.667183,146.680980L465.399973,157.888993L472.846785,170.178251L468.549411,180.771242L470.448462,183.474624L471.598912,195.050373L467.287271,193.955990L465.890820,196.769290L468.982443,201.497743L476.751821,203.746247L490.767287,199.024334L501.208842,203.384312L508.297013,200.052544L524.260852,211.722823L526.948180,209.846159L555.186864,212.305866L557.851161,209.878956L565.569518,212.250780L572.619508,227.662501L581.315211,233.091167L585.633510,235.386559L586.686402,234.201338L595.472530,220.466727L593.188342,214.371195L595.571446,206.319688L602.740462,203.677353L597.682666,192.884282L598.067191,189.456816L605.131380,184.255310L610.827515,185.387323L615.990478,181.430654L620.617688,183.761605L625.764346,179.246172L628.217766,159.181563L625.703814,153.875644L634.021378,149.765259L639.352758,142.081773L636.609518,137.912086L636.716655,120.983264L635.251723,121.095733L634.382601,119.575018L631.861991,118.856116L632.057854,116.837894L624.383181,119.829277L613.315175,115.196857L609.953638,110.759047L603.923590,110.205477L592.240752,116.294605L582.151451,114.545009L564.563231,116.705565L562.186037,110.224103L532.681749,109.463232L526.723376,105.814884L524.903268,99.872764L517.087964,102.994448L516.872127,91.160134L510.241175,90.743912L492.670075,94.008926L490.913488,89.504815L473.969653,78.005922L458.878468,77.486680L458.879079,77.521617Z " data-name-1="Picardie"/><path d="M270.664420,538.578612L270.872104,538.930370L270.872104,538.741084L270.664420,538.578612Z M274.363198,526.889856L274.401040,527.948512L275.099299,527.894670L274.363198,526.889856Z M272.853564,526.374184L273.136590,526.862979L273.533005,526.944197L272.853564,526.374184Z M254.435081,518.467380L258.624503,531.204879L262.870517,534.079522L266.663728,542.504875L265.474893,524.337209L260.228503,523.577008L254.435081,518.467380Z M247.207232,497.844601L245.131272,502.319148L262.323282,505.045901L252.000548,502.210167L247.207232,497.844601Z M353.748209,408.933876L351.029698,408.924984L337.249567,412.485350L312.459992,414.482716L312.343548,418.602151L296.726188,424.915229L287.443643,419.357531L283.895210,419.200082L301.887725,442.926929L301.103661,445.735815L307.690929,467.329729L308.210446,480.013042L311.117959,482.142512L310.083342,487.661562L304.794694,490.924604L293.321782,488.913671L286.517725,490.467770L282.842046,486.274551L274.539428,492.218939L274.608656,492.218939L267.003482,508.887811L277.514810,518.440167L273.891442,522.843403L276.665662,529.414144L274.948342,535.624877L271.532659,536.627585L271.589115,542.721705L267.796039,552.863367L287.592154,567.002532L297.160104,578.174672L301.424936,589.217246L301.424936,589.235604L310.010717,584.675188L313.135085,589.391936L322.926753,597.657150L322.735373,603.502922L326.525664,602.054377L335.652089,609.331113L347.498452,606.311597L353.780887,598.020360L360.052926,597.677120L367.904169,588.975686L368.533880,578.828731L381.252150,568.065333L386.104300,557.495725L389.895406,555.550119L391.631000,554.001574L392.550260,549.706203L398.322145,540.101821L401.116338,541.725678L405.506039,537.326161L407.335115,527.793924L412.746593,528.931050L414.826494,525.267317L404.423526,500.382100L410.303568,494.208678L419.457304,491.801465L421.244395,487.603478L427.908976,487.307927L429.371259,485.567468L429.305020,481.523196L432.788233,478.259864L424.773670,468.924564L412.017762,461.075840L413.838210,450.877144L408.814450,448.867396L407.545585,443.540997L395.404849,425.269427L389.691322,424.966527L389.786095,429.051778L381.125176,429.027791L375.932524,431.421199L363.108678,415.969696L362.993457,411.875879L354.843426,411.840830L353.748209,408.933876Z " data-name-1="Poitou-Charentes"/><path d="M784.553525,810.054248L784.270499,810.234799L784.364931,810.286251L784.553525,810.054248Z M774.796981,809.176951L774.702684,809.357530L774.740457,809.383353L774.796981,809.176951Z M768.550486,808.609074L768.550486,808.815776L768.644987,808.841601L768.550486,808.609074Z M782.647612,807.473616L782.043582,808.222035L782.402223,808.815776L782.647612,807.473616Z M743.319455,802.386600L743.300568,802.799981L743.470412,802.799981L743.319455,802.386600Z M741.771979,801.534075L741.696433,801.792283L741.885162,801.792283L741.771979,801.534075Z M742.734311,801.507937L742.602241,802.696569L743.394865,801.766797L742.734311,801.507937Z M740.809511,797.165649L740.545235,797.372765L740.752851,797.320917L740.809511,797.165649Z M731.637975,794.010214L731.373835,794.113598L731.807819,794.501783L731.637975,794.010214Z M715.540503,792.328239L715.842484,793.104733L716.616358,792.742351L715.540503,792.328239Z M715.710346,791.396679L715.936917,791.888288L715.880258,791.629444L715.710346,791.396679Z M713.842070,790.361237L714.672468,791.034095L714.748082,791.137533L713.842070,790.361237Z M711.822838,789.118476L712.558939,789.739657L712.804192,789.636194L711.822838,789.118476Z M711.785201,783.003990L711.671881,783.055689L711.671881,783.159645L711.785201,783.003990Z M711.294557,776.701299L712.841965,778.206249L712.841965,777.869069L711.294557,776.701299Z M829.543170,761.811686L829.448737,761.863579L829.392213,761.863954L829.543170,761.811686Z M828.788319,761.551653L828.278789,761.993964L829.222370,761.863579L828.788319,761.551653Z M830.467865,760.901331L830.505638,761.187156L830.581048,761.187156L830.467865,760.901331Z M908.822266,712.891662L908.690060,713.101798L908.765606,713.233224L908.822266,712.891662Z M690.829260,681.498715L687.738860,674.330524L679.394937,685.820744L690.829260,681.498715Z M664.052927,688.505945L665.266559,693.127028L672.629740,710.698365L674.716774,718.367468L662.046671,727.906868L663.069806,734.305827L660.579904,742.126638L648.839387,747.768427L649.367600,754.163066L634.917471,765.791341L634.959389,765.791341L659.228156,767.533227L662.247493,775.870982L666.531416,776.986795L681.213346,776.519681L689.460188,771.560666L693.083556,778.881016L711.841725,776.078409L713.785615,783.289169L725.825531,789.351334L727.637283,791.810766L744.923387,799.001417L743.621368,802.619381L750.811309,799.311664L766.172816,801.947425L767.776748,806.621851L769.928119,799.078841L776.382230,797.889733L780.099895,800.733054L787.761797,795.717483L803.613811,790.878842L803.066440,784.222152L800.065854,784.351650L808.916725,769.742195L814.842217,770.391783L822.221023,762.878577L822.145477,759.365442L828.071104,759.261422L842.545554,744.587037L854.432205,737.806289L860.983127,735.993943L858.999494,727.535476L869.733044,717.301833L873.667497,710.004606L868.612011,698.805980L857.600800,703.454420L842.512741,700.851209L838.831014,696.778385L826.276880,692.398935L819.286879,679.495993L817.995934,669.421465L823.648318,651.653050L827.900514,649.828558L825.926460,634.887328L809.383183,628.472398L807.840734,617.954128L804.267504,618.270826L800.754874,610.875040L800.455882,609.749672L785.472921,615.906541L772.773129,619.316713L779.663738,625.473834L780.639182,635.677712L764.042982,636.817241L750.992430,644.720220L740.349983,654.143784L735.182876,654.547499L727.957608,664.406747L733.214868,667.641485L725.830287,671.239714L718.616840,671.721097L716.615067,682.185574L723.700656,686.640547L729.063355,685.183141L731.790019,699.884329L725.339168,698.777088L725.964056,702.642573L715.636974,700.630859L715.292328,697.793174L704.884265,693.727410L701.058512,694.634877L699.505126,686.644439L694.443796,689.159773L689.497010,687.520882L678.076749,691.840237L674.647885,682.886028L664.595950,682.769086L664.545744,687.967357L664.052927,688.505945Z " data-name-1="Provence-Alpes-Côte-d'Azur"/><path d="M616.081378,498.432468L613.462395,499.368619L606.063004,500.550832L609.312309,522.901402L600.020457,527.930044L602.869000,531.787077L600.788148,542.838058L602.047094,546.768839L616.366240,564.123994L619.827373,575.889982L612.407805,585.260592L621.406372,586.930787L634.321593,582.612333L638.962594,586.631802L642.829518,585.133634L646.676467,595.269398L652.235505,602.939703L645.826911,611.913386L648.171156,617.859067L643.000448,618.878220L639.592305,624.286644L631.069095,631.505191L612.912715,643.134271L614.399319,646.984227L614.268336,649.606845L613.569261,651.209953L614.405841,657.700484L618.776315,662.442859L623.670790,683.816537L638.642677,684.411749L644.993253,682.306614L647.831741,688.415599L650.930226,682.566070L658.838875,686.904548L664.052927,688.505945L664.545744,687.967357L664.595950,682.769086L674.647885,682.886028L678.076749,691.840237L689.497010,687.520882L694.443796,689.159773L699.505126,686.644439L701.058512,694.634877L704.884265,693.727410L715.292328,697.793174L715.636974,700.630859L725.964056,702.642573L725.339168,698.777088L731.790019,699.884329L729.063355,685.183141L723.700656,686.640547L716.615067,682.185574L718.616840,671.721097L725.830287,671.239714L733.214868,667.641485L727.957608,664.406747L735.182876,654.547499L740.349983,654.143784L750.992430,644.720220L764.042982,636.817241L780.639182,635.677712L779.663738,625.473834L772.773129,619.316713L785.472921,615.906541L800.455882,609.749672L801.080973,609.114120L810.095777,605.377491L817.298150,607.041086L834.273033,595.582196L837.689668,580.380404L825.971230,570.927443L820.503568,557.172769L813.594820,550.424702L815.163832,539.924277L825.621149,535.374488L826.976295,524.929141L813.309144,505.547128L816.291795,494.409066L812.466857,491.203035L813.811608,482.302158L803.085055,478.408877L792.678215,478.478106L780.409418,483.671771L774.981431,488.860915L776.904328,501.522456L767.952026,508.368163L754.703641,510.125095L757.384990,505.064251L765.593243,499.067230L768.443960,486.099266L762.124704,482.337438L762.421250,481.716863L751.086591,497.401226L739.105032,497.448887L730.912065,490.155844L723.367899,496.559677L709.703873,485.698650L711.444767,481.604014L711.437158,479.247650L710.067610,480.302587L699.495886,475.808696L687.383616,473.543065L680.696344,480.800997L674.559159,502.011443L670.167964,505.404850L667.098760,495.057476L661.852506,497.152402L655.149064,496.090542L647.064525,500.201872L646.070127,508.027751L636.504215,508.189966L634.996075,504.238227L627.016839,504.344909L621.542383,506.755945L614.061331,500.682238L616.081378,498.432468Z " data-name-1="Rhône-Alpes"/></g></svg>